# xmcd
#
# Track frame offsets:
# 185
# 18897
# 39660
# 59520
# 74360
# 92205
# 115952
# 134292
# 153920
# 175980
#
# Disc length: 2556 seconds
#
#
# Revision: 7
# Processed by: cddbd v1.5.1PL0 Copyright (c) Steve Scherf et al.
# Submitted via: FreeRIP 2.92 
#
DISCID=8609fa0a
DTITLE=Susan Ashton - Angels Of Mercy
DYEAR=1992
DGENRE=Contemporary Christian
TTITLE0=Here In My Heart
TTITLE1=Grand Canyon
TTITLE2=Better Angels Of Our Nature
TTITLE3=Hunger And Thirst
TTITLE4=Innocence Lost
TTITLE5=Started As A Whisper
TTITLE6=Alice In Wonderland
TTITLE7=When Are You Coming Back
TTITLE8=Walk On By
TTITLE9=Let Me Go
EXTD=email doowoparchives@yahoo.com - corrections to windking3@yahoo.com
EXTT0=
EXTT1=
EXTT2=
EXTT3=
EXTT4=
EXTT5=
EXTT6=
EXTT7=
EXTT8=
EXTT9=
PLAYORDER=
